<?xml version="1.0" encoding="UTF-8" standalone="no"?>
<!DOCTYPE svg PUBLIC "-//W3C//DTD SVG 1.1//EN" "http://www.w3.org/Graphics/SVG/1.1/DTD/svg11.dtd">
<svg width="100%" height="100%" viewBox="0 0 400 400" version="1.1" xmlns="http://www.w3.org/2000/svg" xmlns:xlink="http://www.w3.org/1999/xlink" xml:space="preserve" xmlns:serif="http://www.serif.com/" style="fill-rule:evenodd;clip-rule:evenodd;stroke-linecap:round;stroke-linejoin:round;stroke-miterlimit:1.5;">
    <g id="Brille" transform="matrix(0.531136,0,0,0.531136,-341.465,-46.4336)">
        <g transform="matrix(1,0,0,1,0,-0.014905)">
            <path d="M940.619,197.058L940.619,371.111" style="fill:none;stroke:white;stroke-width:5.56px;"/>
        </g>
        <g transform="matrix(1,0,0,1,0,-0.014905)">
            <path d="M741.605,404.694C741.605,404.694 742.715,400.871 744.543,394.573C765.135,323.646 818.615,266.972 888.229,242.304C888.229,242.304 888.23,242.303 888.23,242.303C921.162,230.634 943.286,199.622 943.602,164.685C943.662,158.098 943.702,153.692 943.702,153.692" style="fill:none;stroke:white;stroke-width:5.56px;"/>
        </g>
        <g transform="matrix(1,0,0,1,0,-0.014905)">
            <path d="M872.454,379.97L931.306,376.459L930.136,384.317L1013.07,384.317" style="fill:none;stroke:white;stroke-width:5.56px;"/>
        </g>
        <g transform="matrix(1,0,0,1,56.167,-14.3832)">
            <path d="M881.325,283.792C881.325,282.494 880.272,281.44 878.974,281.44L874.272,281.44C872.974,281.44 871.921,282.494 871.921,283.792L871.921,300.25C871.921,301.547 872.974,302.601 874.272,302.601L878.974,302.601C880.272,302.601 881.325,301.547 881.325,300.25L881.325,283.792Z" style="fill:none;stroke:white;stroke-width:3.51px;"/>
        </g>
        <g transform="matrix(1,0,0,1,0,-0.014905)">
            <path d="M1019.08,803.749L875.92,803.749L766.198,787.291C766.198,787.291 766.197,787.291 766.196,787.29C716.429,772.026 680.233,729.005 673.707,677.361C670.612,652.87 667.796,630.589 666.793,622.65C666.536,620.618 666.678,618.556 667.211,616.58C667.211,616.579 667.211,616.579 667.211,616.579C671.986,598.864 671.978,580.199 667.188,562.489C667.17,562.425 667.153,562.361 667.136,562.298C666.305,559.226 665.975,556.039 666.158,552.861C666.674,543.911 667.838,523.742 669.004,503.534C670.965,469.545 690.11,438.898 719.796,422.23C719.796,422.23 719.797,422.229 719.797,422.229C720.599,421.779 721.347,421.24 722.027,420.621C723.949,418.874 728.236,414.977 731.919,411.628C736.052,407.872 741.165,405.364 746.665,404.396C759.61,402.119 784.771,397.692 802.64,394.549C815.996,392.199 828.724,387.125 840.032,379.641C840.032,379.641 840.032,379.641 840.032,379.641C840.437,379.373 840.911,379.231 841.396,379.231C846.187,379.231 872.524,379.231 872.524,379.231C872.524,379.231 872.545,381.244 872.579,384.459C872.848,409.905 891.538,431.398 916.701,435.198C916.702,435.198 916.702,435.198 916.703,435.199C930.262,437.246 943.901,438.728 957.583,439.64C981.956,441.265 1019.34,443.758 1019.34,443.758" style="fill:none;stroke:white;stroke-width:3.51px;"/>
        </g>
        <g transform="matrix(1,0,0,1,-0.653105,-3.60698)">
            <circle cx="799.621" cy="603.07" r="10.286" style="fill:none;stroke:white;stroke-width:3.51px;"/>
        </g>
        <g transform="matrix(1.27465,0,0,1.27465,-258.434,-154.042)">
            <circle cx="928.36" cy="533.947" r="9.274" style="fill:none;stroke:white;stroke-width:2.75px;"/>
        </g>
        <g transform="matrix(0.887324,0,0,0.887324,16.3041,-0.329378)">
            <circle cx="928.36" cy="533.947" r="9.274" style="fill:none;stroke:white;stroke-width:3.96px;"/>
        </g>
        <g transform="matrix(0.887324,0,0,1.07042,-123.46,-38.923)">
            <circle cx="928.36" cy="533.947" r="9.274" style="fill:none;stroke:white;stroke-width:3.57px;"/>
        </g>
        <g transform="matrix(0.943662,0,0,1.07042,-175.24,88.3019)">
            <circle cx="928.36" cy="533.947" r="9.274" style="fill:none;stroke:white;stroke-width:3.48px;"/>
        </g>
        <g transform="matrix(1,0,0,1,0,-0.014905)">
            <path d="M902.105,794.033C901.074,793.523 900.438,792.457 900.48,791.308C900.521,790.159 901.232,789.141 902.297,788.707C904.086,787.978 906.091,787.161 908.042,786.366C914.03,783.927 920.77,784.131 926.599,786.929C929.676,788.406 933.072,790.037 936.013,791.448C937.199,792.017 937.909,793.262 937.795,794.573C937.681,795.884 936.767,796.988 935.501,797.344C935.498,797.345 935.496,797.346 935.494,797.346C924.547,800.425 912.849,799.341 902.654,794.304C902.469,794.212 902.286,794.122 902.105,794.033Z" style="fill:none;stroke:white;stroke-width:7.6px;"/>
        </g>
        <g transform="matrix(1.13725,0.187236,-0.187236,1.13725,41.3426,-255.632)">
            <path d="M821.7,724.278C840.516,724.278 855.792,739.555 855.792,758.371C855.792,777.186 838.409,783.851 819.593,783.851C800.777,783.851 787.608,777.186 787.608,758.371C787.608,739.555 802.884,724.278 821.7,724.278Z" style="fill:none;stroke:white;stroke-width:6.59px;"/>
        </g>
        <g transform="matrix(0.829932,0,0,1.25786,120.663,-144.339)">
            <ellipse cx="690.295" cy="538.927" rx="19.201" ry="20.769" style="fill:none;stroke:white;stroke-width:7.13px;"/>
        </g>
        <g transform="matrix(0.835079,-0.124296,0.176851,1.18817,22.2939,105.664)">
            <ellipse cx="690.295" cy="538.927" rx="19.201" ry="20.769" style="fill:none;stroke:white;stroke-width:7.32px;"/>
        </g>
        <g transform="matrix(0.941613,0.336697,-0.336697,0.941613,203.646,-255.119)">
            <path d="M782.788,441.996C795.43,404.836 839.124,403.714 850.345,411.695C866.825,424.079 864.17,451.727 861.315,460.47C857.34,472.641 850.175,482.825 837.371,482.825C824.568,482.825 777.217,468.34 782.788,441.996Z" style="fill:none;stroke:white;stroke-width:7.6px;"/>
        </g>
        <g transform="matrix(0.866025,-0.5,0.5,0.866025,-144.254,530.012)">
            <path d="M927.599,474.317C944.324,474.317 966.018,499.338 966.018,516.063C966.018,532.788 948.379,550.056 931.653,550.056C914.928,550.056 901.349,536.477 901.349,519.752C901.349,503.027 910.874,474.317 927.599,474.317Z" style="fill:none;stroke:white;stroke-width:7.6px;"/>
        </g>
        <g transform="matrix(1,0,0,1,1.25396,-5.23975)">
            <path d="M764.772,568.448C784.9,568.448 812.945,584.789 812.945,604.917C812.945,625.045 784.9,641.386 764.772,641.386C744.644,641.386 728.303,625.045 728.303,604.917C728.303,584.789 744.644,568.448 764.772,568.448Z" style="fill:none;stroke:white;stroke-width:7.6px;"/>
        </g>
        <g transform="matrix(1,0,0,1,0,-0.014905)">
            <path d="M821.859,387.138C821.859,387.138 821.859,387.138 821.859,387.138C822.358,356.16 842.558,328.951 872.065,319.509C903.231,309.536 937.641,298.525 937.641,298.525" style="fill:none;stroke:white;stroke-width:5.56px;"/>
        </g>
        <g transform="matrix(-1,0,0,1,2038.89,-0.014905)">
            <path d="M940.619,197.058L940.619,371.111" style="fill:none;stroke:white;stroke-width:5.56px;"/>
        </g>
        <g transform="matrix(-1,0,0,1,2038.89,-0.014905)">
            <path d="M741.605,404.694C741.605,404.694 742.715,400.871 744.543,394.573C765.135,323.646 818.615,266.972 888.229,242.304C888.229,242.304 888.23,242.303 888.23,242.303C921.162,230.634 943.286,199.622 943.602,164.685C943.662,158.098 943.702,153.692 943.702,153.692" style="fill:none;stroke:white;stroke-width:5.56px;"/>
        </g>
        <g transform="matrix(-1,0,0,1,2038.89,-0.014905)">
            <path d="M872.454,379.97L931.306,376.459L930.136,384.317L1013.07,384.317" style="fill:none;stroke:white;stroke-width:5.56px;"/>
        </g>
        <g transform="matrix(-1,0,0,1,1982.73,-14.3832)">
            <path d="M881.325,283.792C881.325,282.494 880.272,281.44 878.974,281.44L874.272,281.44C872.974,281.44 871.921,282.494 871.921,283.792L871.921,300.25C871.921,301.547 872.974,302.601 874.272,302.601L878.974,302.601C880.272,302.601 881.325,301.547 881.325,300.25L881.325,283.792Z" style="fill:none;stroke:white;stroke-width:3.51px;"/>
        </g>
        <g transform="matrix(-1,0,0,1,2041.24,-1.32112)">
            <path d="M1064.72,325.198C1064.72,316.908 1057.99,310.177 1049.7,310.177L993.006,310.177C984.716,310.177 977.985,316.908 977.985,325.198L977.985,355.241C977.985,363.532 984.716,370.263 993.006,370.263L1049.7,370.263C1057.99,370.263 1064.72,363.532 1064.72,355.241L1064.72,325.198Z" style="fill:none;stroke:white;stroke-width:9.41px;"/>
        </g>
        <g transform="matrix(-1,0,0,1,2038.89,-0.014905)">
            <path d="M1019.08,803.749L875.92,803.749L766.198,787.291C766.198,787.291 766.197,787.291 766.196,787.29C716.429,772.026 680.233,729.005 673.707,677.361C670.612,652.87 667.796,630.589 666.793,622.65C666.536,620.618 666.678,618.556 667.211,616.58C667.211,616.579 667.211,616.579 667.211,616.579C671.986,598.864 671.978,580.199 667.188,562.489C667.17,562.425 667.153,562.361 667.136,562.298C666.305,559.226 665.975,556.039 666.158,552.861C666.674,543.911 667.838,523.742 669.004,503.534C670.965,469.545 690.11,438.898 719.796,422.23C719.796,422.23 719.797,422.229 719.797,422.229C720.599,421.779 721.347,421.24 722.027,420.621C723.949,418.874 728.236,414.977 731.919,411.628C736.052,407.872 741.165,405.364 746.665,404.396C759.61,402.119 784.771,397.692 802.64,394.549C815.996,392.199 828.724,387.125 840.032,379.641C840.032,379.641 840.032,379.641 840.032,379.641C840.437,379.373 840.911,379.231 841.396,379.231C846.187,379.231 872.524,379.231 872.524,379.231C872.524,379.231 872.545,381.244 872.579,384.459C872.848,409.905 891.538,431.398 916.701,435.198C916.702,435.198 916.702,435.198 916.703,435.199C930.262,437.246 943.901,438.728 957.583,439.64C981.956,441.265 1019.34,443.758 1019.34,443.758" style="fill:none;stroke:white;stroke-width:3.51px;"/>
        </g>
        <g transform="matrix(-1,0,0,1,2039.55,-3.60698)">
            <circle cx="799.621" cy="603.07" r="10.286" style="fill:none;stroke:white;stroke-width:3.51px;"/>
        </g>
        <g transform="matrix(-1.27465,0,0,1.27465,2297.33,-154.042)">
            <circle cx="928.36" cy="533.947" r="9.274" style="fill:none;stroke:white;stroke-width:2.75px;"/>
        </g>
        <g transform="matrix(-0.887324,0,0,0.887324,2022.59,-0.329378)">
            <circle cx="928.36" cy="533.947" r="9.274" style="fill:none;stroke:white;stroke-width:3.96px;"/>
        </g>
        <g transform="matrix(-0.887324,0,0,1.07042,2162.35,-38.923)">
            <circle cx="928.36" cy="533.947" r="9.274" style="fill:none;stroke:white;stroke-width:3.57px;"/>
        </g>
        <g transform="matrix(-0.943662,0,0,1.07042,2214.13,88.3019)">
            <circle cx="928.36" cy="533.947" r="9.274" style="fill:none;stroke:white;stroke-width:3.48px;"/>
        </g>
        <g transform="matrix(-1,0,0,1,2038.89,-0.014905)">
            <path d="M902.105,794.033C901.074,793.523 900.438,792.457 900.48,791.308C900.521,790.159 901.232,789.141 902.297,788.707C904.086,787.978 906.091,787.161 908.042,786.366C914.03,783.927 920.77,784.131 926.599,786.929C929.676,788.406 933.072,790.037 936.013,791.448C937.199,792.017 937.909,793.262 937.795,794.573C937.681,795.884 936.767,796.988 935.501,797.344C935.498,797.345 935.496,797.346 935.494,797.346C924.547,800.425 912.849,799.341 902.654,794.304C902.469,794.212 902.286,794.122 902.105,794.033Z" style="fill:none;stroke:white;stroke-width:7.6px;"/>
        </g>
        <g transform="matrix(-1.13725,0.187236,0.187236,1.13725,1997.55,-255.632)">
            <path d="M821.7,724.278C840.516,724.278 855.792,739.555 855.792,758.371C855.792,777.186 838.409,783.851 819.593,783.851C800.777,783.851 787.608,777.186 787.608,758.371C787.608,739.555 802.884,724.278 821.7,724.278Z" style="fill:none;stroke:white;stroke-width:6.59px;"/>
        </g>
        <g transform="matrix(-0.829932,0,0,1.25786,1918.23,-144.339)">
            <ellipse cx="690.295" cy="538.927" rx="19.201" ry="20.769" style="fill:none;stroke:white;stroke-width:7.13px;"/>
        </g>
        <g transform="matrix(-0.835079,-0.124296,-0.176851,1.18817,2016.6,105.664)">
            <ellipse cx="690.295" cy="538.927" rx="19.201" ry="20.769" style="fill:none;stroke:white;stroke-width:7.32px;"/>
        </g>
        <g transform="matrix(-0.941613,0.336697,0.336697,0.941613,1835.25,-255.119)">
            <path d="M782.788,441.996C795.43,404.836 839.124,403.714 850.345,411.695C866.825,424.079 864.17,451.727 861.315,460.47C857.34,472.641 850.175,482.825 837.371,482.825C824.568,482.825 777.217,468.34 782.788,441.996Z" style="fill:none;stroke:white;stroke-width:7.6px;"/>
        </g>
        <g transform="matrix(-0.866025,-0.5,-0.5,0.866025,2183.15,530.012)">
            <path d="M927.599,474.317C944.324,474.317 966.018,499.338 966.018,516.063C966.018,532.788 948.379,550.056 931.653,550.056C914.928,550.056 901.349,536.477 901.349,519.752C901.349,503.027 910.874,474.317 927.599,474.317Z" style="fill:none;stroke:white;stroke-width:7.6px;"/>
        </g>
        <g transform="matrix(-1,0,0,1,2037.64,-5.23975)">
            <path d="M764.772,568.448C784.9,568.448 812.945,584.789 812.945,604.917C812.945,625.045 784.9,641.386 764.772,641.386C744.644,641.386 728.303,625.045 728.303,604.917C728.303,584.789 744.644,568.448 764.772,568.448Z" style="fill:none;stroke:white;stroke-width:7.6px;"/>
        </g>
        <g transform="matrix(-1,0,0,1,2038.89,-0.014905)">
            <path d="M821.859,387.138C821.859,387.138 821.859,387.138 821.859,387.138C822.358,356.16 842.558,328.951 872.065,319.509C903.231,309.536 937.641,298.525 937.641,298.525" style="fill:none;stroke:white;stroke-width:5.56px;"/>
        </g>
        <path d="M1019.27,709.768C1045.44,709.768 1066.69,731.015 1066.69,757.184C1066.69,783.353 1045.44,792.843 1019.27,792.843C993.101,792.843 971.855,783.353 971.855,757.184C971.855,731.015 993.101,709.768 1019.27,709.768Z" style="fill:none;stroke:white;stroke-width:5.56px;"/>
        <g transform="matrix(0.763316,0,0,0.763316,241.245,176.908)">
            <path d="M1019.27,709.768C1045.44,709.768 1066.69,731.015 1066.69,757.184C1066.69,783.353 1045.44,797.293 1019.27,797.293C993.101,797.293 971.855,783.353 971.855,757.184C971.855,731.015 993.101,709.768 1019.27,709.768Z" style="fill:none;stroke:white;stroke-width:2.41px;"/>
        </g>
        <g transform="matrix(0.709677,0,0,0.709677,305.373,294.467)">
            <circle cx="1005.95" cy="651.642" r="12.148" style="fill:none;stroke:white;stroke-width:7.83px;"/>
        </g>
        <path d="M1040.57,217.531C1040.57,215.599 1039,214.03 1037.06,214.03L1000.39,214.03C998.454,214.03 996.885,215.599 996.885,217.531L996.885,224.532C996.885,226.464 998.454,228.033 1000.39,228.033L1037.06,228.033C1039,228.033 1040.57,226.464 1040.57,224.532L1040.57,217.531Z" style="fill:none;stroke:white;stroke-width:4.53px;"/>
        <g transform="matrix(1,0,0,1.44776,0,-116.107)">
            <path d="M1040.57,217.531C1040.57,215.599 1038.29,214.03 1035.5,214.03L1001.95,214.03C999.156,214.03 996.885,215.599 996.885,217.531L996.885,224.532C996.885,226.464 999.156,228.033 1001.95,228.033L1035.5,228.033C1038.29,228.033 1040.57,226.464 1040.57,224.532L1040.57,217.531Z" style="fill:white;"/>
        </g>
        <g transform="matrix(1.00418e-16,1.63995,-0.83209,5.09508e-17,1202.64,-1510.63)">
            <path d="M1040.57,217.531C1040.57,215.599 1039.77,214.03 1038.79,214.03L998.662,214.03C997.681,214.03 996.885,215.599 996.885,217.531L996.885,224.532C996.885,226.464 997.681,228.033 998.662,228.033L1038.79,228.033C1039.77,228.033 1040.57,226.464 1040.57,224.532L1040.57,217.531Z" style="fill:none;stroke:white;stroke-width:3.49px;"/>
        </g>
        <g transform="matrix(1.00418e-16,1.63995,-0.83209,5.09508e-17,1190.13,-1504.39)">
            <path d="M1040.57,217.531C1040.57,215.599 1039.77,214.03 1038.79,214.03L998.662,214.03C997.681,214.03 996.885,215.599 996.885,217.531L996.885,224.532C996.885,226.464 997.681,228.033 998.662,228.033L1038.79,228.033C1039.77,228.033 1040.57,226.464 1040.57,224.532L1040.57,217.531Z" style="fill:none;stroke:white;stroke-width:3.49px;"/>
        </g>
        <g transform="matrix(1.00418e-16,1.63995,-0.83209,5.09508e-17,1215.16,-1504.39)">
            <path d="M1040.57,217.531C1040.57,215.599 1039.77,214.03 1038.79,214.03L998.662,214.03C997.681,214.03 996.885,215.599 996.885,217.531L996.885,224.532C996.885,226.464 997.681,228.033 998.662,228.033L1038.79,228.033C1039.77,228.033 1040.57,226.464 1040.57,224.532L1040.57,217.531Z" style="fill:none;stroke:white;stroke-width:3.49px;"/>
        </g>
    </g>
</svg>
