<?xml version="1.0" encoding="UTF-8" standalone="no"?>
<!DOCTYPE svg PUBLIC "-//W3C//DTD SVG 1.1//EN" "http://www.w3.org/Graphics/SVG/1.1/DTD/svg11.dtd">
<svg width="100%" height="100%" viewBox="0 0 400 400" version="1.1" xmlns="http://www.w3.org/2000/svg" xmlns:xlink="http://www.w3.org/1999/xlink" xml:space="preserve" xmlns:serif="http://www.serif.com/" style="fill-rule:evenodd;clip-rule:evenodd;stroke-linecap:round;stroke-linejoin:round;stroke-miterlimit:1.5;">
    <g id="Controller" transform="matrix(0.159391,-0.684667,0.684667,0.159391,-620.786,1258.32)">
        <path d="M1430.8,618.268C1433.65,600.948 1448.34,588.052 1465.88,587.471C1471.42,587.287 1477.17,587.096 1482.61,586.916C1500.49,586.323 1518.35,588.451 1535.59,593.226C1594.58,609.565 1739.09,649.595 1812.7,669.984C1842.18,678.151 1869.76,692.066 1893.84,710.93C1908.34,722.282 1925.7,735.883 1943.16,749.558C1997.32,791.971 2020.89,862.635 2003.05,929.066C2003.05,929.067 2003.05,929.067 2003.05,929.068C1985.3,995.148 1921.45,1037.95 1853.58,1029.28C1849.8,1028.8 1846.28,1028.35 1843.09,1027.94C1831.41,1026.45 1820.5,1021.28 1811.94,1013.19C1798.32,1000.31 1777.47,980.595 1766.01,969.764C1760.93,964.959 1753.62,963.327 1746.98,965.512C1743.01,966.815 1738.27,968.375 1733.31,970.007C1712.63,976.807 1690.15,966.908 1681.21,947.063C1676.39,936.356 1671.08,924.573 1666.25,913.849C1657.26,893.898 1664.86,870.382 1683.83,859.474C1688.14,856.995 1692.44,854.528 1696.41,852.243C1708.62,845.221 1717.01,833.059 1719.24,819.149C1720.69,810.039 1722.45,799.078 1724.18,788.231C1728.78,759.494 1712.87,731.402 1685.86,720.569C1601.43,686.708 1430.8,618.269 1430.8,618.269C1430.8,618.269 1430.8,618.269 1430.8,618.268Z" style="fill:none;stroke:white;stroke-width:4.45px;"/>
        <g transform="matrix(0.923304,0.38407,-0.38407,0.923304,381.111,-550.893)">
            <path d="M1613.39,695.264C1613.39,692.166 1610.87,689.651 1607.78,689.651L1555.73,689.651C1552.63,689.651 1550.12,692.166 1550.12,695.264L1565,708.256C1565,711.354 1567.52,713.869 1570.62,713.869L1622.66,713.869C1625.76,713.869 1628.27,711.354 1628.27,708.256L1613.39,695.264Z" style="fill:none;stroke:white;stroke-width:4.45px;"/>
        </g>
        <path d="M1430.8,627.198L1430.8,627.2C1430.8,640.955 1439.31,653.275 1452.18,658.138C1459.76,661.002 1466.44,663.527 1466.44,663.527L1545.31,703.938" style="fill:none;stroke:white;stroke-width:4.45px;"/>
        <g transform="matrix(0.953724,0.0340326,-0.022684,0.635692,82.6002,188.769)">
            <path d="M1657.34,656.306C1657.34,656.306 1657.34,656.308 1657.34,656.312C1654.21,663.903 1654.07,673.439 1656.97,681.234C1659.86,689.028 1665.35,693.86 1671.29,693.86C1683.16,693.86 1696.97,693.86 1709.41,693.86C1732.95,693.86 1756.23,686.491 1777.76,672.226C1777.76,672.226 1777.76,672.226 1777.76,672.226" style="fill:none;stroke:white;stroke-width:5.48px;"/>
        </g>
        <g transform="matrix(1,0,0,1,13.1009,-6.12285)">
            <ellipse cx="1614.08" cy="635.693" rx="14.695" ry="5.919" style="fill:none;stroke:white;stroke-width:4.45px;"/>
        </g>
        <g transform="matrix(1,0,0,1,169.846,52.2483)">
            <ellipse cx="1614.08" cy="635.693" rx="14.695" ry="5.919" style="fill:none;stroke:white;stroke-width:4.45px;"/>
        </g>
        <g transform="matrix(0.674286,-0.257771,0.357084,0.934072,283.858,543.961)">
            <circle cx="1898.42" cy="860.973" r="69.229" style="fill:none;stroke:white;stroke-width:5.1px;"/>
        </g>
        <g transform="matrix(1.24425,-0.475659,0.632845,1.65542,-1008.48,321.968)">
            <path d="M1898.42,930.202C1860.21,930.202 1829.19,899.181 1829.19,860.973C1829.19,822.764 1860.21,791.744 1898.42,791.744" style="fill:none;stroke:white;stroke-width:2.84px;"/>
        </g>
        <path d="M1691.58,774.894C1691.58,774.894 1691.48,781.477 1691.37,788.824C1691.29,793.493 1693.42,797.924 1697.11,800.785C1700.8,803.646 1705.62,804.603 1710.13,803.369C1710.13,803.369 1710.13,803.369 1710.13,803.369" style="fill:none;stroke:white;stroke-width:4.45px;"/>
        <path d="M1612.48,736.752L1691.32,767.056C1691.32,767.056 1703.86,758.174 1720.06,768.624" style="fill:none;stroke:white;stroke-width:4.45px;"/>
    </g>
</svg>
